<svg width="101" height="75" viewBox="0 0 101 75" fill="none" xmlns="http://www.w3.org/2000/svg">
<path d="M39.6385 74.792C27.4358 74.792 17.9212 71.6347 11.0945 65.32C4.26783 58.92 0.8545 49.6187 0.8545 37.416C0.8545 25.2133 4.26783 15.9547 11.0945 9.64C17.9212 3.23999 27.3932 0.0399933 39.5105 0.0399933C45.3985 0.0399933 51.0305 0.850662 56.4065 2.472C61.7825 4.09333 65.9638 5.928 68.9505 7.976V33.32H46.9345V31.016C46.9345 28.2 46.3372 26.152 45.1425 24.872C43.9478 23.5067 42.0705 22.824 39.5105 22.824C34.5612 22.824 32.0865 25.5547 32.0865 31.016V42.024C32.0865 48.68 35.8838 52.008 43.4785 52.008C50.5612 52.008 58.7958 51.24 68.1825 49.704V69.8C65.2812 71.08 61.1852 72.232 55.8945 73.256C50.6892 74.28 45.2705 74.792 39.6385 74.792Z" fill="white"/>
<path d="M88.0831 73C87.3471 73 86.7071 72.728 86.1631 72.184L78.1471 64.216C77.6351 63.672 77.3791 63.032 77.3791 62.296V36.184H75.3631C74.5631 36.184 74.1631 35.784 74.1631 34.984V21.4C74.1631 20.6 74.5631 20.2 75.3631 20.2H77.3791V14.2C77.3791 13.4 77.7791 13 78.5791 13H93.7471C94.5471 13 94.9471 13.4 94.9471 14.2V20.2H99.6031C100.403 20.2 100.803 20.6 100.803 21.4V34.984C100.803 35.784 100.403 36.184 99.6031 36.184H94.9471V55.384C94.9471 56.024 95.1391 56.536 95.5231 56.92L100.227 61.624C100.547 61.944 100.707 62.424 100.707 63.064V71.8C100.707 72.6 100.307 73 99.5071 73H88.0831Z" fill="white"/>
</svg>
